# xmcd CD database file
#
# Track frame offsets:
#	150
#	60886
#	95196
#	102601
#	109889
#	137961
#	148758
#	180361
#	190221
#	198981
#	219641
#
# Disc length: 3275 seconds
#
# Revision: 3
# Processed by: cddbd v1.5.2PL0 Copyright (c) Steve Scherf et al.
# Submitted via: CDex 1.50
#
DISCID=a90cc90b
DTITLE=Henri Texier Strada Sextet - (V)ivre_Texier,Corneloup,Kornazov,Codjia,Marguet,Texier
DYEAR=2004
DGENRE=Jazz
TTITLE0=Old Dehli
TTITLE1=Lady Bertrand
TTITLE2=To Late To Be Passive
TTITLE3=Light Hope
TTITLE4=Dance Revolt
TTITLE5=Gandhi
TTITLE6=Blues for L. Peltier
TTITLE7=Silent Revolt
TTITLE8=Ludique Révolte
TTITLE9=Decent Revolt
TTITLE10=Black March Revolt
EXTD=YEAR: 2004
EXTT0=
EXTT1=
EXTT2=
EXTT3=
EXTT4=
EXTT5=
EXTT6=
EXTT7=
EXTT8=
EXTT9=
EXTT10=
PLAYORDER=
